<svg xmlns="http://www.w3.org/2000/svg" width="1200" height="630" viewBox="0 0 1200 630">
  <rect width="1200" height="630" fill="#0d1412"/>
  <g transform="translate(96,150) scale(2.2)">
    <rect width="100" height="100" rx="22" fill="#0F6E56"/>
    <path d="M50,12 C58,22 62,34 74,46 C86,58 84,80 62,88 C48,93 30,88 26,72 C22,56 40,48 44,34 C46,26 48,18 50,12 Z" fill="#E1F5EE"/>
    <path d="M55,66 A3,3 0 0 1 61,66 A6,6 0 0 1 49,66 A9,9 0 0 1 67,66 A12,12 0 0 1 43,66 A15,15 0 0 1 73,66" fill="none" stroke="#0F6E56" stroke-width="3.5" stroke-linecap="round"/>
    <path d="M47,26 C52,28 56,32 58,37" fill="none" stroke="#0F6E56" stroke-width="3" stroke-linecap="round"/>
  </g>
  <text x="380" y="270" font-family="DejaVu Sans, sans-serif" font-size="110" font-weight="700" fill="#dce9e4">Sankh</text>
  <text x="384" y="340" font-family="DejaVu Sans, sans-serif" font-size="40" fill="#1d9a78">Blow the conch. Run your APIs.</text>
  <text x="384" y="400" font-family="DejaVu Sans Mono, monospace" font-size="28" fill="#84a097">curl as plain .sh files &#183; CI runner &#183; web UI</text>
  <rect x="96" y="480" width="1008" height="72" rx="12" fill="#121c19" stroke="#233630" stroke-width="2"/>
  <text x="124" y="527" font-family="DejaVu Sans Mono, monospace" font-size="28" fill="#dce9e4"><tspan fill="#1d9a78">$</tspan> curl -fsSL https://sankh.dev/install.sh | sh</text>
</svg>
